<?xml version="1.0" encoding="utf-8"?>
<!-- Generator: Adobe Illustrator 23.0.1, SVG Export Plug-In . SVG Version: 6.00 Build 0)  -->
<svg version="1.1" id="Layer_1" xmlns="http://www.w3.org/2000/svg" xmlns:xlink="http://www.w3.org/1999/xlink" x="0px" y="0px"
	 viewBox="0 0 91 15" style="enable-background:new 0 0 91 15;" xml:space="preserve">
<style type="text/css">
	.st0{display:none;}
	.st1{display:inline;fill-rule:evenodd;clip-rule:evenodd;fill:#50E3C2;}
	.st2{display:inline;}
	.st3{font-family:'aBigDeal';}
	.st4{font-size:10px;}
</style>
<title>logotype</title>
<desc>Created with Sketch.</desc>
<g id="logotype" class="st0">
	<path id="Zammad" class="st1" d="M0,14.8h11.7V9.7H8.6v2.2H5.3c-0.4,0-0.9,0.1-0.9,0.1c0,0,0.4-0.3,0.7-0.7l6.3-9V0H0.1v5h3.1V2.9
		h2.9C6.5,2.9,7,2.8,7,2.8c0,0-0.4,0.3-0.7,0.7L0,12.5V14.8z M13.1,11.7c0,2.1,1.6,3.3,3.5,3.3c2.3,0,3.1-1.8,3.1-1.8h0
		c0,0,0,0.1,0,0.3v0.1c0,0.5,0.4,1.1,1.4,1.1h3.1v-2.6h-0.8c-0.3,0-0.5-0.2-0.5-0.5V8.2c0-2.8-1.7-4.3-4.7-4.3
		c-2.7,0-4.5,1.4-4.5,1.4L15,7.7c0,0,1.5-1,2.9-1c0.8,0,1.5,0.3,1.5,1.2v0.3h-0.6C17.1,8.1,13.1,8.6,13.1,11.7L13.1,11.7z
		 M16.7,11.5c0-0.9,1.3-1.3,2.4-1.3h0.3v0.2c0,0.9-0.9,2-1.8,2C17,12.4,16.7,12,16.7,11.5L16.7,11.5z M25.5,14.8h6.3v-2.6h-1.3v-1.6
		c0-1.7,0.4-3.4,2-3.4c0.7,0,0.8,0.6,0.8,1.3v6.3h4.9v-2.6h-1.3v-1.8c0-1.8,0.5-3.2,2-3.2c0.7,0,0.8,0.6,0.8,1.3v6.3h4.9v-2.6h-1.3
		V7.9c0-2.9-1.5-4-3.3-4c-1.6,0-2.9,0.9-3.5,2h0c-0.5-1.5-1.6-2-2.8-2c-1.8,0-2.8,1.2-3.4,2h0c0,0,0-0.1,0-0.2V5.3
		c0-0.7-0.5-1.2-1.5-1.2h-3.4v2.6h1c0.3,0,0.5,0.1,0.5,0.4v5h-1.3V14.8z M45.9,14.8h6.3v-2.6h-1.3v-1.6c0-1.7,0.4-3.4,2-3.4
		c0.7,0,0.8,0.6,0.8,1.3v6.3h4.9v-2.6h-1.3v-1.8c0-1.8,0.5-3.2,2-3.2c0.7,0,0.8,0.6,0.8,1.3v6.3h4.9v-2.6h-1.3V7.9
		c0-2.9-1.5-4-3.3-4c-1.6,0-2.9,0.9-3.5,2h0c-0.5-1.5-1.6-2-2.8-2c-1.8,0-2.8,1.2-3.4,2h0c0,0,0-0.1,0-0.2V5.3
		c0-0.7-0.5-1.2-1.5-1.2h-3.4v2.6h1c0.3,0,0.5,0.1,0.5,0.4v5h-1.3V14.8z M66,11.7c0,2.1,1.6,3.3,3.5,3.3c2.3,0,3.1-1.8,3.1-1.8h0
		c0,0,0,0.1,0,0.3v0.1c0,0.5,0.4,1.1,1.4,1.1h3.1v-2.6h-0.8c-0.3,0-0.5-0.2-0.5-0.5V8.2c0-2.8-1.7-4.3-4.7-4.3
		c-2.7,0-4.5,1.4-4.5,1.4l1.2,2.4c0,0,1.5-1,2.9-1c0.8,0,1.5,0.3,1.5,1.2v0.3h-0.6C70,8.1,66,8.6,66,11.7L66,11.7z M69.6,11.5
		c0-0.9,1.3-1.3,2.4-1.3h0.3v0.2c0,0.9-0.9,2-1.8,2C70,12.4,69.6,12,69.6,11.5L69.6,11.5z M78.1,9.4c0,3.3,1.9,5.6,4.7,5.6
		c2.5,0,3.3-1.8,3.3-1.8h0c0,0,0,0.1,0,0.3v0.1c0,0.5,0.4,1.1,1.4,1.1h3.1v-2.6h-0.8c-0.3,0-0.5-0.2-0.5-0.5V0h-5v2.6h1.4v1.7
		c0,0.4,0,0.7,0,0.7h0c0,0-0.7-1.1-2.7-1.1C80.1,3.9,78.1,6.1,78.1,9.4L78.1,9.4z M81.7,9.4c0-1.7,0.9-2.6,2.1-2.6
		c1.4,0,2,1.2,2,2.6c0,1.7-1,2.5-2.1,2.5C82.6,12,81.7,11,81.7,9.4L81.7,9.4z"/>
</g>
<g id="Layer_2" class="st0">
	<text transform="matrix(1 0 0 1 0.8813 12.4206)" class="st2 st3 st4">DRAGONWAR.IO</text>
</g>
<image style="overflow:visible;" width="1879" height="242" xlink:href="../../../../../../../../../../Downloads/draw-text.png"  transform="matrix(4.673962e-02 0 0 4.673962e-02 1.5881 1.8445)">
</image>
</svg>
