<?xml version="1.0" encoding="utf-8"?>
<!-- Generator: Adobe Illustrator 23.0.1, SVG Export Plug-In . SVG Version: 6.00 Build 0)  -->
<svg version="1.1" id="Layer_1" xmlns="http://www.w3.org/2000/svg" xmlns:xlink="http://www.w3.org/1999/xlink" x="0px" y="0px"
	 viewBox="0 0 42 36" style="enable-background:new 0 0 42 36;" xml:space="preserve">
<style type="text/css">
	.st0{display:none;}
	.st1{display:inline;}
	.st2{fill-rule:evenodd;clip-rule:evenodd;fill:#CA2317;}
	.st3{fill-rule:evenodd;clip-rule:evenodd;fill:#E84F83;}
	.st4{fill-rule:evenodd;clip-rule:evenodd;fill:#E54011;}
	.st5{fill-rule:evenodd;clip-rule:evenodd;fill:#B7DFF2;}
	.st6{fill-rule:evenodd;clip-rule:evenodd;fill:#FFCE33;}
	.st7{fill-rule:evenodd;clip-rule:evenodd;fill:#D6B12D;}
	.st8{fill-rule:evenodd;clip-rule:evenodd;fill:#FFDE85;}
	.st9{fill-rule:evenodd;clip-rule:evenodd;fill:#009EC6;}
	.st10{fill-rule:evenodd;clip-rule:evenodd;fill:#5EAFCE;}
	.st11{fill-rule:evenodd;clip-rule:evenodd;fill:#045972;}
	.st12{fill-rule:evenodd;clip-rule:evenodd;fill:#5A8591;}
	.st13{fill-rule:evenodd;clip-rule:evenodd;fill:#F39804;}
</style>
<title>logo</title>
<desc>Created with Sketch.</desc>
<g id="Page-1" class="st0">
	<g id="logo" class="st1">
		<g id="Shape" transform="translate(1.000000, 0.000000)">
			<polygon class="st2" points="27.3,12.6 36.7,9.7 31.2,13.3 			"/>
			<polygon class="st3" points="33.1,19.6 31.2,13.3 36.7,9.7 35.1,15.4 			"/>
			<polygon class="st2" points="39.5,8 38.4,9.7 35.1,15.4 36.7,9.7 			"/>
			<polygon class="st4" points="39.8,9.1 37.2,11.8 38.4,9.7 			"/>
			<polygon class="st4" points="27.9,10.8 35.6,10.1 30.2,11.7 			"/>
			<polygon class="st2" points="28.2,15.2 31.2,13.3 33.1,19.6 32.1,21.6 			"/>
			<polygon class="st5" points="23.8,22.7 22.3,5.4 32.1,21.6 			"/>
			<polygon class="st4" points="19.7,27.2 23.8,22.7 32.1,21.6 			"/>
			<polygon class="st6" points="0.2,35.9 19.7,27.2 23.8,22.7 17.4,22.1 			"/>
			<polygon class="st7" points="0.9,28.8 11,27.2 14.1,24.7 12.6,24 			"/>
			<polygon class="st8" points="4.5,20.5 14.1,24.7 17.4,22.1 			"/>
			<polygon class="st9" points="21.6,11.7 20.4,11.9 17.4,22.1 20.7,20 			"/>
			<polygon class="st10" points="23.4,18.2 20.7,20 22.3,5.4 			"/>
			<polygon class="st11" points="13,13.1 21.6,11.7 22,8.3 			"/>
			<polygon class="st12" points="12.1,5.1 19.6,9.6 22,8.3 22.1,7.8 			"/>
			<polygon class="st9" points="13.6,0.2 20.4,7.3 22.1,7.8 22.3,5.4 			"/>
			<polygon class="st13" points="17.4,22.1 23.4,18.2 23.8,22.7 			"/>
		</g>
	</g>
</g>
<image style="overflow:visible;" width="512" height="512" xlink:href="../../../../../../../../../../Dropbox/Projects/29_Dragonwar/images/logo_dragon_war_1 copy.png"  transform="matrix(9.021433e-02 0 0 9.021433e-02 -3.1836 -5.0949)">
</image>
</svg>
